<svg id="Layer_1" data-name="Layer 1" xmlns="http://www.w3.org/2000/svg" viewBox="0 0 690.03 281.03"><defs><style>.cls-1{fill:#d45250;}</style></defs><title>banner</title><path class="cls-1" d="M107,299.33c33.57-294.74,542.32-300.07,594.8,0" transform="translate(-54.99 -18.3)"/><path class="cls-1" d="M112.57,200.37,55,232.06l31.38,57a249.83,249.83,0,0,1,26.27-88.58Z" transform="translate(-54.99 -18.3)"/><path class="cls-1" d="M221.67,94.5l-64.59-7.06-7.1,65A263.1,263.1,0,0,1,221.67,94.5Z" transform="translate(-54.99 -18.3)"/><path class="cls-1" d="M315,18.3,277.11,72l0,0a339.19,339.19,0,0,1,91-16.23Z" transform="translate(-54.99 -18.3)"/><path class="cls-1" d="M530.81,80.68,496.53,24.6,440.46,58.87l.17.28a343.26,343.26,0,0,1,90,21.62Z" transform="translate(-54.99 -18.3)"/><path class="cls-1" d="M662.41,163.65l.31,0-6.33-65.41L591,104.53l.07.63A277.55,277.55,0,0,1,662.41,163.65Z" transform="translate(-54.99 -18.3)"/><path class="cls-1" d="M721.22,285.34,745,224.08l-60.79-23.62A269.5,269.5,0,0,1,721,285.26Z" transform="translate(-54.99 -18.3)"/></svg>