<svg id="Layer_1" data-name="Layer 1" xmlns="http://www.w3.org/2000/svg" viewBox="0 0 527 166"><defs><style>.cls-1{fill:#d3524f;}</style></defs><title>contact</title><path class="cls-1" d="M208.06,84.8C204.88,92.84,196.42,96,191,96c-8.88,0-13.14-4-13.14-14.76S183,50,198.76,50c5.64,0,10,2.22,10,8,0,3.18-1.14,5.52-4.2,5.52A4.32,4.32,0,0,1,201.16,62c1.44-.72,2.76-3.24,2.76-5.52a3.34,3.34,0,0,0-3.66-3.66c-6.6,0-12.48,15.78-12.48,28,0,5.52,1.44,9.36,7.2,9.36a14.55,14.55,0,0,0,11.7-6Z"/><path class="cls-1" d="M229.78,74.06a1.41,1.41,0,0,0,.66.12c2.76,0,6.66-1.8,9.24-3.6l.54,1.62c-2.28,2.46-6.24,4.26-10.62,5-1,11.1-7,18.06-14.34,18.06-5.58,0-9.6-2.64-9.6-9.48s4.08-21.3,16.44-21.3C227.26,64.46,229.78,67.76,229.78,74.06Zm-5.16,3.3c-1.26-.3-1.62-1.32-1.62-2.52a3.29,3.29,0,0,1,1.86-3.24c-.12-2.52-.72-3.48-2.28-3.48-4.26,0-8,11-8,16.86,0,4,.78,4.86,3.06,4.86C220.6,89.84,223.66,84.44,224.62,77.36Z"/><path class="cls-1" d="M248,70.22c-2.16,0-3.78,2.52-4.68,5.52L239.2,95h-8.64l6.36-30h8.64l-.66,3.12a8.92,8.92,0,0,1,7-3.36c3.84,0,6.66,2,6.66,6.78S255.7,83.66,255.7,87c0,1.5.6,2.52,2.4,2.52,2.64,0,3.72-2.16,5-5.28h2.52c-3.36,9.84-8,11.1-11.16,11.1-5.22,0-7.08-3.36-7.08-6.78,0-4.08,2.7-11.46,2.7-15.3C250.12,71.3,249.4,70.22,248,70.22Z"/><path class="cls-1" d="M277.9,55.52l-2,9.48h3.6L279,67.4h-3.6l-3.84,18a8.33,8.33,0,0,0-.24,1.92c0,1.68.78,2.22,2.46,2.22,2.34,0,4.5-2.28,5.4-5.28h2.52c-3.42,9.78-9.36,11.1-12.6,11.1-3.6,0-6.42-2.16-6.42-7.2a19.68,19.68,0,0,1,.48-3.9l3.6-16.86h-2l.48-2.4h2l1.8-8.28Z"/><path class="cls-1" d="M308,65l-4.32,20.4a8.33,8.33,0,0,0-.24,1.92c0,1.68.78,2.58,2.46,2.58,2.34,0,4-2.64,4.86-5.64h2.52c-3.42,9.78-8.82,11.1-12.06,11.1s-5.52-1.92-5.88-5.52c-1.86,2.76-4.68,5.52-8.94,5.52-4.08,0-8-2.52-8-9.66,0-8.1,5-21,15.42-21,3.42,0,4.86,1.32,4.86,3.06v.42l.66-3.18Zm-20.7,19.86c0,4.62,1.92,4.68,3,4.68,1.74,0,4.26-1.8,5-5.28l2.88-13.56a2.33,2.33,0,0,0-2.46-2.28C290.56,68.42,287.26,79.22,287.26,84.86Z"/><path class="cls-1" d="M328.18,70.1c0-1.5-.54-2.46-1.68-2.46-3.78,0-7.68,11-7.68,17.64,0,4.08,1.44,5,4.32,5,4.74,0,7.62-2.64,10.62-6.06h2c-3.42,5.52-8.52,11.1-16.5,11.1-5.64,0-9.36-2.76-9.36-9.54,0-7,4-21.36,16.14-21.36,5.34,0,6.66,2.76,6.66,5.52,0,2.94-1.44,4.38-3.18,4.38a3.84,3.84,0,0,1-2.1-.72A10.6,10.6,0,0,0,328.18,70.1Z"/><path class="cls-1" d="M342.4,85.4a8.86,8.86,0,0,0-.3,2.1c0,1.26.48,2.16,2.1,2.16a4.81,4.81,0,0,0,1.56-.18c-1.68,5.16-4.32,5.88-6.36,5.88-4.2,0-6-2.94-6-6.78a14.77,14.77,0,0,1,.36-3.18l3.84-18h-2l.48-2.4h2l1.8-8.28,8.88-1.2s-.9,4.08-2,9.48h3.6l-.48,2.4h-3.6Z"/></svg>