<svg id="Layer_1" data-name="Layer 1" xmlns="http://www.w3.org/2000/svg" viewBox="0 0 61.19 59.58"><title>instagram</title><path d="M82.14,26.32h-39A11,11,0,0,0,32.05,37.13v38A11,11,0,0,0,43.14,85.9h39A11,11,0,0,0,93.23,75.09v-38A11,11,0,0,0,82.14,26.32Zm-7.2,8.37a2.39,2.39,0,0,1,2.5-2.37h7.3a2.4,2.4,0,0,1,2.46,2,1.63,1.63,0,0,1,0,.38c0,2.33,0,4.65,0,7a2.35,2.35,0,0,1-2,2.33,3.7,3.7,0,0,1-.47,0h-7.3A2.43,2.43,0,0,1,75,42a1.83,1.83,0,0,1,0-.33C74.94,39.33,74.93,37,74.94,34.69ZM62.64,44c6.79,0,12.3,5.23,12.3,11.68s-5.5,11.67-12.3,11.67S50.36,62.14,50.35,55.68,55.75,44,62.64,44Zm24.59,7.33V72.09c0,1.53,0,3.06,0,4.6a2.33,2.33,0,0,1-2,2.29,3.94,3.94,0,0,1-.69,0Q74,79,63.4,79H40.72a3.42,3.42,0,0,1-1-.12,2.35,2.35,0,0,1-1.7-2c0-.12,0-.25,0-.37V51h5.54A17.63,17.63,0,0,0,45.5,64.85a18.79,18.79,0,0,0,7.67,7.21,20.43,20.43,0,0,0,25.31-5.28A17.87,17.87,0,0,0,81.7,51h5.53Z" transform="translate(-32.05 -26.32)" fill="#d8665a"/></svg>