<svg id="Layer_1" data-name="Layer 1" xmlns="http://www.w3.org/2000/svg" viewBox="0 0 527 166"><defs><style>.cls-1{fill:#d3524f;}</style></defs><title>skyemedia</title><path class="cls-1" d="M153.61,63.26A3.43,3.43,0,0,1,150.85,62a6.28,6.28,0,0,0,2.7-5.16c0-2.1-1.14-4-4.44-4s-5.52,1.86-5.52,5.46c0,8.82,13.5,10,13.5,23,0,10.08-8.16,15-16.86,15-6.84,0-12.72-3-12.72-10.32,0-6.48,4.62-9.84,8.82-9.84,2.1,0,5.1.84,5.28,4-3.24,0-7,1.5-7,5.64a5.47,5.47,0,0,0,5.76,5.76c4,0,7-2.94,7-8,0-10.26-12.3-13.92-12.3-22.74C135,54.5,141.13,50,148.87,50c2.82,0,9.66.6,9.66,7.2C158.53,60.68,156.61,63.26,153.61,63.26Z"/><path class="cls-1" d="M188.41,65l-12,8.34a11.15,11.15,0,0,1,2-.24c4.44,0,6.6,3.18,6.6,7a10.17,10.17,0,0,1-.24,2.28l-.66,3a9.87,9.87,0,0,0-.3,1.92c0,1.2.48,2.22,2.34,2.22,2.64,0,3.72-2.16,5-5.28h2.52c-3.42,10.08-8.28,11.1-11,11.1-4.92,0-7.56-2.46-7.56-6.84a15.1,15.1,0,0,1,.36-3.12l.48-2.34a10,10,0,0,0,.24-2.22c0-1.74-.6-2.88-2.16-2.88-1.38,0-2.76.84-4.44,2.22L166.45,95h-8.64l8.7-40.8,8.88-1.2-4.5,21.12L182.47,65Z"/><path class="cls-1" d="M218.71,65l-5.94,27.84c3.66-1.32,5.88-3.36,7.56-8.58h2.52c-2.34,7.92-6.9,10.2-10.62,11.22l-.9,4.32c-1.8,8.58-6.84,10.2-10.8,10.2-3.66,0-6.72-1.92-6.72-5.82,0-5,5.28-7.56,9.78-8.94l.72-3.24a9.2,9.2,0,0,1-7.2,3.36c-3.6,0-6.42-2.16-6.42-7.2a19.68,19.68,0,0,1,.48-3.9L195.25,65h8.64l-4.32,20.4a6.41,6.41,0,0,0-.18,1.5c0,1.38.42,2.64,1.8,2.64,2.22,0,3.78-2.1,4.68-4.92L210.07,65Zm-19.56,40.32c1.26,0,2.7-1.8,3.48-5.34l.36-1.74c-3.06,1.14-5.88,2.7-5.88,5.1A2,2,0,0,0,199.15,105.32Z"/><path class="cls-1" d="M232.09,89.66c2.28,0,5.16-1.5,7.08-3.18-1.26,6.84-5.58,8.88-10.38,8.88-5.58,0-9.3-2.76-9.3-9.54s3.9-21.36,16.2-21.36c5.34,0,6.6,2.76,6.6,5.76,0,7-6.6,12.24-13.8,12.66-.06.6-.12,1.26-.12,1.8C228.37,88.46,230,89.66,232.09,89.66Zm4.08-22c-3,0-6,6.66-7.26,12.36,4.68-.24,8.76-4.86,8.76-9.9C237.67,68.6,237.31,67.64,236.17,67.64Z"/><path class="cls-1" d="M288.61,95l3.84-26.94L281.17,95H273l1.2-27.06L264.13,95h-4.8l15.24-41.22c-5.94,2-9.54,6.66-9.54,13.5a8.23,8.23,0,0,0,.84,4.14c-3.9,0-6.42-1.5-6.42-5.46,0-7.68,10-16,19.08-16a13.07,13.07,0,0,1,4.56.84l-1.38,31.62,13.2-31.62h8.64L297.25,95Z"/><path class="cls-1" d="M315,90.32c4.74,0,7.62-2.64,10.62-6.06h2c-3.42,5.52-8.52,11.1-16.5,11.1-5.64,0-9.36-2.76-9.36-9.54s3.9-21.36,16.2-21.36c5.34,0,6.6,2.76,6.6,5.76,0,6.9-6.6,12.24-13.8,12.66-.06.84-.12,1.68-.12,2.4C310.63,89.36,312.07,90.32,315,90.32Zm3.48-22.68c-3.06,0-6,6.42-7.2,12.36,4.62-.3,8.7-4.92,8.7-9.9C319.93,68.6,319.57,67.64,318.43,67.64Z"/><path class="cls-1" d="M356.89,53,350,85.4a8.33,8.33,0,0,0-.24,1.92c0,1.68.78,2.22,2.46,2.22,2.34,0,4-2.28,4.86-5.28h2.52C356.17,94,350.77,95,347.53,95a5.51,5.51,0,0,1-5.88-5.16c-1.8,2.76-4.62,5.52-8.88,5.52-4.08,0-8-2.52-8-9.66,0-8.1,5-21,15.42-21,3.42,0,4.86,1.32,4.86,3.06V68L348,54.2Zm-15.3,31.26,2.94-13.74a2.38,2.38,0,0,0-2.46-2.1c-5.1,0-8.4,10.8-8.4,16.44,0,4.62,1.92,4.68,3,4.68,1.68,0,4.14-1.68,4.92-5Z"/><path class="cls-1" d="M369.79,65l-4.32,20.4a8.33,8.33,0,0,0-.24,1.92c0,1.68.78,2.22,2.46,2.22,2.34,0,4.5-2.28,5.4-5.28h2.52c-3.42,9.78-9.36,11.1-12.6,11.1-3.6,0-6.42-2.16-6.42-7.2a19.68,19.68,0,0,1,.48-3.9L361.15,65Zm-2.7-12.78a4.81,4.81,0,0,1,4.8,4.8,4.76,4.76,0,0,1-4.8,4.74A4.71,4.71,0,0,1,362.35,57,4.76,4.76,0,0,1,367.09,52.22Z"/><path class="cls-1" d="M401.89,65l-4.32,20.4a8.33,8.33,0,0,0-.24,1.92c0,1.68.78,2.22,2.46,2.22a3.05,3.05,0,0,0,1.32-.24c-1.62,4.2-2.76,6.06-6,6.06s-5.4-2.1-5.88-5.58c-1.8,2.76-4.68,5.58-8.94,5.58-4.08,0-8-2.52-8-9.66,0-8.1,5-21,15.42-21,3.42,0,4.86,1.32,4.86,3.06v.42l.66-3.18Zm-20.7,19.86c0,4.62,1.92,4.68,3,4.68,1.74,0,4.26-1.8,5-5.28l2.88-13.56a2.33,2.33,0,0,0-2.46-2.28C384.49,68.42,381.19,79.22,381.19,84.86Z"/></svg>