<svg id="Layer_1" data-name="Layer 1" xmlns="http://www.w3.org/2000/svg" viewBox="0 0 68.52 46.12"><title>youtubeicon</title><path d="M96.44,42.84a9.84,9.84,0,0,0-9.89-9.78q-11.13-.47-22.7-.45H61.43q-11.58,0-22.7.45a9.84,9.84,0,0,0-9.89,9.78q-.48,6.4-.46,12.83c0,4.28.14,8.55.46,12.84a9.83,9.83,0,0,0,9.89,9.76q11.7.51,23.91.46t23.91-.46a9.83,9.83,0,0,0,9.89-9.76c.33-4.29.48-8.56.46-12.84S96.77,47.11,96.44,42.84ZM73.15,57.73,54.29,68.64c-2,1.15-3.61.22-3.61-2.06l0-21.8c0-2.29,1.62-3.22,3.61-2.08L73.14,53.57C75.13,54.71,75.13,56.58,73.15,57.73Z" transform="translate(-28.38 -32.61)" fill="#d8665a"/></svg>